<?xml version="1.0" encoding="UTF-8"?>
<svg id="Layer_1" xmlns="http://www.w3.org/2000/svg" version="1.1" viewBox="0 0 24 24">
  <!-- Generator: Adobe Illustrator 29.2.1, SVG Export Plug-In . SVG Version: 2.1.0 Build 116)  -->
  <defs>
    <style>
      .st0 {
        fill: #fddf0d;
      }
    </style>
  </defs>
  <path class="st0" d="M8.4,7.9h1.4l.4,1c.3-.3.5-.6.8-.8s.6-.3,1-.3.4,0,.5,0v1.9c-.4,0-.7,0-.8,0-.4,0-.7,0-.9.2s-.5.3-.7.5v4.1h-1.8v-6.6ZM13.6,6.8s0-.1,0-.2v-1.2c0-.2,0-.3.3-.3h1.4c0,0,.1,0,.2,0s0,.1,0,.2v1.2c0,.2,0,.2-.2.2h-1.4c0,0-.1,0-.2,0ZM13.6,7.9h1.8v6.6h-1.8v-6.6ZM21.3,7.9h1.3c0,.1,0,.1,0,.1-.4,0-.8,0-1.3-.1ZM22.6,8h-1.3c0-.1,0-.1,0-.1-.1,0-.3,0-.4,0,0,0-.1,0-.2,0-.6,0-1.1,0-1.6,0s-1.1.1-1.4.3c-.4.2-.6.6-.8,1.1-.2.5-.3,1.2-.3,2s0,1.4.2,1.9c.2.5.4.9.8,1.1.4.2.8.4,1.4.4s.6,0,.9-.2c.3-.1.6-.3.8-.5v2.3h2.1v-8.2h-.2ZM20.8,12.7s0,0,0,0c-.2,0-.3.2-.5.2-.2,0-.4.1-.6.1-.3,0-.5,0-.7-.2-.2-.1-.3-.3-.4-.6,0-.3-.1-.7-.1-1.2s0-1.2.3-1.5c.2-.3.5-.5,1-.5h1.1v3.6ZM18.9,1.8H4.9c-2.1,0-3.9,1.7-3.9,3.9v8.8h1.7l.3-.6c.3.2.6.4.9.5.3.1.7.2,1.1.2.8,0,1.3-.3,1.7-.8.4-.5.6-1.4.6-2.5s0-1.5-.2-2c-.2-.5-.4-.9-.7-1.1s-.8-.4-1.4-.4-.6,0-.9.2c-.3.1-.6.2-.9.4v-2.6c0-1,.8-1.8,1.8-1.8h14c1,0,1.8.8,1.8,1.8h0s2.1.3,2.1.3v-.3c0-2.1-1.7-3.9-3.9-3.9ZM4.3,9.2c.2,0,.4,0,.6.1.2,0,.3.3.4.6,0,.3.1.7.1,1.2s0,1.2-.3,1.5c-.2.3-.5.4-.8.4s-.8,0-1.2-.3c0,0,0,0,0,0v-3.1s0,0,0,0c.4-.2.8-.3,1.2-.3ZM12.1,19.6h10.7v-2h-12.6v2.3c0,0-4.8-4-4.8-4H1v2h3.6l7.4,6.2v-4.5Z"/>
</svg>