<?xml version="1.0" encoding="UTF-8"?>
<svg id="Layer_1" xmlns="http://www.w3.org/2000/svg" version="1.1" viewBox="0 0 129.9 24">
  <!-- Generator: Adobe Illustrator 29.2.1, SVG Export Plug-In . SVG Version: 2.1.0 Build 116)  -->
  <defs>
    <style>
      .st0 {
        fill: #fff;
        font-family: Exo-ExtraBold, Exo;
        font-weight: 700;
      }

      .st0, .st1 {
        font-size: 18.1px;
      }

      .st2, .st1 {
        fill: #fddf0d;
      }

      .st1 {
        font-family: Exo-SemiBold, Exo;
        font-weight: 600;
      }
    </style>
  </defs>
  <path class="st2" d="M10.5,7.2h1.5l.4,1c.3-.4.6-.6.9-.8s.7-.3,1.1-.3.4,0,.6,0v1.9c-.4,0-.7,0-.8,0-.4,0-.7,0-.9.2s-.5.3-.8.6v4.3h-1.9v-6.8ZM15.9,6.1s0-.1,0-.2v-1.2c0-.2,0-.3.3-.3h1.5c0,0,.1,0,.2,0s0,.1,0,.2v1.2c0,.2,0,.3-.2.3h-1.5c0,0-.2,0-.2,0ZM15.9,7.2h1.9v6.8h-1.9v-6.8ZM23.9,7.2h1.3c0,.1,0,.1,0,.1-.4,0-.8-.1-1.3-.1ZM25.2,7.3h-1.3c0-.1,0-.1,0-.1-.1,0-.3,0-.4,0,0,0-.1,0-.2,0-.6,0-1.1,0-1.6,0s-1.1.1-1.5.3c-.4.2-.7.6-.8,1.1-.2.5-.3,1.2-.3,2.1s0,1.5.2,2c.2.5.4.9.8,1.1.4.2.9.4,1.5.4s.6,0,.9-.2c.3-.1.6-.3.8-.5v2.4h2.1V7.4h-.2ZM23.3,12.2s0,0,0,0c-.2,0-.3.2-.6.2-.2,0-.5.1-.7.1-.3,0-.5,0-.7-.2-.2-.1-.3-.3-.4-.6,0-.3-.1-.7-.1-1.3s0-1.2.3-1.6c.2-.3.5-.5,1-.5h1.1v3.7ZM21.4,1H6.9c-2.2,0-4,1.8-4,4v9.1h1.8l.3-.6c.3.2.6.4.9.5.3.1.7.2,1.1.2.8,0,1.4-.3,1.8-.8.4-.6.6-1.4.6-2.6s0-1.6-.2-2.1c-.2-.5-.4-.9-.8-1.1s-.8-.4-1.4-.4-.6,0-.9.2c-.3.1-.6.2-.9.4v-2.7c0-1,.8-1.9,1.9-1.9h14.5c1,0,1.9.8,1.9,1.9h0s2.1.3,2.1.3v-.3c0-2.2-1.8-4-4-4ZM6.3,8.6c.2,0,.4,0,.6.1.2,0,.3.3.4.6.1.3.2.7.2,1.3s-.1,1.2-.3,1.5c-.2.3-.5.4-.8.4s-.8-.1-1.2-.3c0,0,0,0,0,0v-3.2s0,0,0,0c.4-.2.8-.4,1.2-.4ZM14.4,19.3h11v-2.1h-13v2.3c0,0-4.9-4.1-4.9-4.1H2.9v2.1h3.7l7.6,6.4v-4.6Z"/>
  <text class="st0" transform="translate(31.5 18.7)"><tspan x="0" y="0">Karibu</tspan></text>
  <text class="st1" transform="translate(89.5 18.7)"><tspan x="0" y="0">APIs</tspan></text>
</svg>