<?xml version="1.0" encoding="UTF-8"?>
<svg id="Layer_1" xmlns="http://www.w3.org/2000/svg" version="1.1" viewBox="0 0 125.7 24">
  <!-- Generator: Adobe Illustrator 29.2.1, SVG Export Plug-In . SVG Version: 2.1.0 Build 116)  -->
  <defs>
    <style>
      .st0 {
        fill: #00323d;
      }

      .st1 {
        fill: #9f9fa9;
      }
    </style>
  </defs>
  <path class="st0" d="M9.7,7h1.5l.4,1c.3-.4.6-.6.9-.8s.7-.3,1.1-.3.4,0,.6,0v1.9c-.4,0-.7,0-.8,0-.4,0-.7,0-.9.2s-.5.3-.8.6v4.3h-1.9v-6.8ZM15.1,5.9s0-.1,0-.2v-1.2c0-.2,0-.3.3-.3h1.5c0,0,.1,0,.2,0s0,.1,0,.2v1.2c0,.2,0,.3-.2.3h-1.5c0,0-.2,0-.2,0ZM15.1,7h1.9v6.8h-1.9v-6.8ZM23.1,7h1.3c0,.1,0,.1,0,.1-.4,0-.8-.1-1.3-.1ZM24.5,7.2h-1.3c0-.1,0-.1,0-.1-.1,0-.3,0-.4,0,0,0-.1,0-.2,0-.6,0-1.1,0-1.6,0s-1.1.1-1.5.3c-.4.2-.7.6-.8,1.1-.2.5-.3,1.2-.3,2.1s0,1.5.2,2c.2.5.4.9.8,1.1.4.2.9.4,1.5.4s.6,0,.9-.2c.3-.1.6-.3.8-.5v2.4h2.1V7.2h-.2ZM22.6,12s0,0,0,0c-.2,0-.3.2-.6.2-.2,0-.5.1-.7.1-.3,0-.5,0-.7-.2-.2-.1-.3-.3-.4-.6,0-.3-.1-.7-.1-1.3s0-1.2.3-1.6c.2-.3.5-.5,1-.5h1.1v3.7ZM20.6.8H6.2c-2.2,0-4,1.8-4,4v9.1h1.8l.3-.6c.3.2.6.4.9.5.3.1.7.2,1.1.2.8,0,1.4-.3,1.8-.8.4-.6.6-1.4.6-2.6s0-1.6-.2-2.1c-.2-.5-.4-.9-.8-1.1s-.8-.4-1.4-.4-.6,0-.9.2c-.3.1-.6.2-.9.4v-2.7c0-1,.8-1.9,1.9-1.9h14.5c1,0,1.9.8,1.9,1.9h0s2.1.3,2.1.3v-.3c0-2.2-1.8-4-4-4ZM5.5,8.4c.2,0,.4,0,.6.1.2,0,.3.3.4.6.1.3.2.7.2,1.3s-.1,1.2-.3,1.5c-.2.3-.5.4-.8.4s-.8-.1-1.2-.3c0,0,0,0,0,0v-3.2s0,0,0,0c.4-.2.8-.4,1.2-.4ZM13.6,19.2h11v-2.1h-13v2.3c0,0-4.9-4.1-4.9-4.1H2.2v2.1h3.7l7.6,6.4v-4.6Z"/>
  <path class="st0" d="M85.9-145.7h3.5l1,2.5c.7-.9,1.4-1.5,2.1-2s1.6-.7,2.6-.7,1,0,1.3.2v4.7c-1.1-.1-1.7-.2-1.9-.2-.9,0-1.6.1-2.3.4s-1.2.7-1.8,1.3v10.2h-4.5v-16.4ZM98.9-148.3c-.1-.1-.2-.3-.2-.4v-3c0-.4.2-.6.6-.6h3.5c.2,0,.3,0,.4.2s.2.3.2.5v3c0,.4-.2.6-.6.6h-3.5c-.2,0-.4,0-.5-.2ZM98.8-145.7h4.5v16.4h-4.5v-16.4ZM118.1-145.6l3.2.4h0c-1-.1-2-.3-3.2-.4ZM121.3-145.3l-3.2-.4h0c-.3,0-.7,0-1,0-.2,0-.3,0-.5,0-1.4-.1-2.7-.2-3.9-.2s-2.7.3-3.6.8c-.9.5-1.6,1.4-2,2.7-.4,1.2-.7,2.9-.7,5s.2,3.6.6,4.8c.4,1.2,1,2.1,1.9,2.7.9.6,2.1.9,3.6.9s1.5-.2,2.3-.5c.7-.3,1.4-.7,2-1.1v5.8h5.1v-20.4h-.4ZM116.7-133.6c0,0-.1,0-.2,0-.4.2-.8.4-1.3.6-.6.2-1.1.3-1.6.3-.7,0-1.2-.1-1.6-.4-.4-.3-.7-.8-.9-1.5-.2-.7-.3-1.7-.3-3s.2-3,.7-3.8c.5-.8,1.3-1.2,2.4-1.2h2.7v8.9ZM112.1-160.6h-34.8c-5.3,0-9.6,4.3-9.6,9.6v21.8h4.3l.7-1.6c.7.6,1.4,1,2.2,1.3.7.3,1.6.5,2.6.5,1.9,0,3.3-.7,4.2-2,.9-1.4,1.4-3.4,1.4-6.2s-.2-3.8-.6-5c-.4-1.3-1-2.2-1.9-2.8s-2-.9-3.4-.9-1.4.1-2.3.4c-.8.3-1.5.6-2.2.9v-6.4c0-2.5,2-4.5,4.5-4.5h34.8c2.5,0,4.5,2,4.5,4.5h0c0,.1,5.1.7,5.1.7v-.7c0-5.3-4.3-9.6-9.6-9.6ZM75.8-142.3c.6,0,1,.1,1.4.3.4.2.7.7,1,1.4.2.7.4,1.7.4,3s-.2,3-.7,3.7c-.5.7-1.2,1.1-2,1.1s-2-.2-3-.7c0,0,0,0-.1,0v-7.8s0,0,.1,0c1-.6,2-.9,3-.9ZM95.2-116.4h26.5v-5h-31.4v5.6c-.1,0-11.9-9.9-11.9-9.9h-10.8v5h8.9l18.3,15.4.3-11.2Z"/>
  <g>
    <g>
      <path class="st0" d="M28.1,18.2V4.7h3.1v5.4h1.6l2.4-5.4h3.3l-3.3,6.8,3.4,6.7h-3.3l-2.6-5.3h-1.6v5.3h-3.1Z"/>
      <path class="st0" d="M41.8,18.3c-.8,0-1.4-.2-1.8-.7-.5-.4-.7-1-.7-1.8v-.9c0-.7.3-1.3.8-1.8.5-.5,1.4-.7,2.5-.7h2.2v-.5c0-.3,0-.5-.1-.7,0-.2-.3-.3-.6-.4-.3,0-.7-.1-1.3-.1h-2.9v-1.8c.5-.2,1-.3,1.7-.4.6-.1,1.4-.2,2.3-.2.8,0,1.5,0,2.1.3s1,.5,1.4,1c.3.5.5,1.2.5,2v6.5h-2.5l-.5-1c-.1,0-.3.2-.4.3s-.4.3-.7.4c-.3.1-.6.2-.9.3-.3,0-.7.1-1.1.1ZM43.5,16.1c0,0,.2,0,.3,0,.1,0,.2,0,.3,0,.1,0,.2,0,.3,0,.1,0,.2,0,.3,0s.1,0,.2,0v-2h-1.2c-.4.2-.7.3-.9.4-.2.2-.3.4-.3.7v.4c0,.2,0,.4.1.5,0,.1.2.2.4.3.2,0,.3,0,.5,0Z"/>
      <path class="st0" d="M49.7,18.2v-9.8h2.4l.7,1.4c.3-.4.7-.8,1.1-1.1.4-.3.9-.5,1.5-.5s.2,0,.4,0c.1,0,.3,0,.4,0v3.2c-.2,0-.4,0-.6,0-.2,0-.4,0-.6,0-.3,0-.6,0-.9,0-.3,0-.5.2-.7.3-.2.1-.4.3-.6.5v5.8h-3.1Z"/>
      <path class="st0" d="M57.8,7.1c-.3,0-.4-.1-.4-.4v-1.9c0-.3.1-.4.4-.4h2.4c.1,0,.2,0,.3.1,0,0,0,.2,0,.3v1.9c0,.3-.1.4-.4.4h-2.4ZM57.5,18.2v-9.8h3.1v9.8h-3.1Z"/>
      <path class="st0" d="M68.2,18.3c-.4,0-.8,0-1.1-.1-.3,0-.6-.2-.9-.4-.3-.2-.5-.3-.7-.5l-.5.9h-2.6V4.3h3.1v4.7c.4-.2.8-.4,1.2-.5s.9-.2,1.3-.2c.8,0,1.5.2,2,.5.5.4.9.9,1.1,1.7.2.8.3,1.7.3,2.9s-.1,2-.4,2.8c-.2.7-.6,1.3-1.1,1.6s-1.1.5-1.9.5ZM67,15.7c.2,0,.5,0,.7-.2.2-.1.4-.4.5-.7.1-.4.2-.9.2-1.6s0-1.3-.2-1.7c-.1-.3-.3-.6-.5-.7-.2,0-.4-.1-.6-.1s-.6,0-.8.1c-.3,0-.5.2-.6.3v4.2c.2,0,.4.2.6.2.2,0,.5.1.9.1Z"/>
      <path class="st0" d="M75.8,18.3c-.9,0-1.5-.3-2-.8-.5-.5-.7-1.2-.7-2.1v-6.9h3.1v6c0,.5.1.8.3.9.2.2.5.2.9.2s.5,0,.8-.2c.3-.1.6-.3.8-.5v-6.5h3.1v9.8h-2.6l-.5-1c-.4.3-.9.5-1.5.7-.6.2-1.1.3-1.7.3Z"/>
    </g>
    <g>
      <path class="st1" d="M85.4,18.2l4.4-13.4h2.8l4.4,13.4h-2.3l-1-3.2h-4.8l-1,3.2h-2.3ZM89.3,13h3.8l-1.9-6.3-1.9,6.3Z"/>
      <path class="st1" d="M98.6,18.2V4.8h5.5c.4,0,.9,0,1.3.2.4.1.8.3,1.2.6.4.3.7.8.9,1.3s.3,1.4.3,2.4-.1,1.8-.3,2.4c-.2.6-.5,1.1-.9,1.4s-.8.5-1.2.7c-.4.1-.8.2-1.2.2s-.5,0-.8,0-.6,0-1,0c-.3,0-.6,0-.9,0s-.5,0-.7,0v4.6h-2.2ZM100.9,11.8h3c.4,0,.7,0,.9-.2.3-.2.5-.4.6-.8.1-.4.2-.9.2-1.5s0-1.1-.2-1.5c-.2-.4-.4-.6-.6-.8s-.5-.2-.9-.2h-3.1v5Z"/>
      <path class="st1" d="M109.8,18.2V4.8h2.2v13.4h-2.2Z"/>
      <path class="st1" d="M117.9,18.3c-.3,0-.6,0-1,0-.4,0-.7,0-1.1,0-.4,0-.7,0-1-.1-.3,0-.5-.1-.7-.2v-1.3h4.2c.3,0,.6,0,.8,0,.2,0,.4-.1.5-.3.1-.1.2-.4.2-.7v-.3c0-.3-.1-.5-.3-.7s-.5-.3-1-.3h-1.5c-.6,0-1.1,0-1.5-.2-.4-.2-.8-.4-1-.8-.3-.4-.4-.9-.4-1.5v-.5c0-.6.1-1.1.4-1.5.2-.4.6-.7,1.2-.9.5-.2,1.3-.3,2.2-.3s.8,0,1.3,0c.4,0,.9,0,1.3.1s.7.1,1,.2v1.3h-4c-.4,0-.8,0-1,.2-.2.2-.4.4-.4.8v.3c0,.3,0,.5.2.6.1.1.3.2.5.3.2,0,.5,0,.8,0h1.5c1,0,1.7.2,2.1.7.5.4.7,1.1.7,1.9v.8c0,.7-.2,1.2-.5,1.5-.3.4-.7.6-1.3.8-.6.2-1.2.2-2,.2Z"/>
    </g>
  </g>
</svg>